<?xml version="1.0" encoding="utf-8"?>
<!-- Generator: Adobe Illustrator 17.0.0, SVG Export Plug-In . SVG Version: 6.00 Build 0)  -->
<!DOCTYPE svg PUBLIC "-//W3C//DTD SVG 1.1//EN" "http://www.w3.org/Graphics/SVG/1.1/DTD/svg11.dtd">
<svg version="1.1" id="Layer_1" xmlns="http://www.w3.org/2000/svg" xmlns:xlink="http://www.w3.org/1999/xlink" x="0px" y="0px"
	 width="512px" height="512px" viewBox="0 0 512 512" enable-background="new 0 0 512 512" xml:space="preserve">
<g>
	<g>
		<g>
			<path fill="#FFFFFF" d="M372.938,379.175c-27.483,0-49.841,22.388-49.841,49.908c0,27.518,22.359,49.907,49.841,49.907
				c27.482,0,49.841-22.388,49.842-49.907C422.78,401.564,400.421,379.175,372.938,379.175z"/>
			<path fill="#FFFFFF" d="M184.914,478.99c-27.482,0-49.84-22.389-49.84-49.907c0-27.52,22.358-49.908,49.84-49.908
				s49.84,22.389,49.84,49.908C234.754,456.602,212.396,478.99,184.914,478.99z M184.914,403.674
				c-13.988,0-25.369,11.398-25.369,25.409s11.381,25.408,25.369,25.408s25.369-11.397,25.369-25.408
				S198.902,403.674,184.914,403.674z"/>
			<path fill="#FFFFFF" d="M184.914,382.01c-25.853,0-47.006,21.183-47.006,47.073s21.153,47.073,47.006,47.073
				s47.006-21.183,47.006-47.073S210.767,382.01,184.914,382.01z M184.914,457.326c-15.512,0-28.204-12.71-28.204-28.244
				s12.692-28.244,28.204-28.244s28.204,12.71,28.204,28.244C213.117,444.617,200.426,457.326,184.914,457.326z"/>
			<path fill="#FFFFFF" d="M168.461,366.486c-23.601,0-44.338-16.98-49.309-40.375L78.789,114.608
				c-0.474-0.963-0.98-2.107-1.054-3.414l-7.006-35.55c-2.137-11.978-12.2-20.309-24.482-20.309H12.401
				c-6.747,0-12.236-5.495-12.236-12.249s5.489-12.249,12.236-12.249h33.844c23.878,0,44.422,16.806,48.85,39.96l5.181,25.941
				h381.245c10.096,0,19.58,5.035,25.37,13.469c5.948,8.664,7.105,19.529,3.097,29.064l-74.706,194.797
				c-7.563,19.693-25.945,32.417-46.832,32.417H168.461V366.486z M143.981,320.75c2.528,11.814,13.26,20.767,24.95,20.767H388.92
				c10.621,0,19.911-6.483,23.669-16.518l74.748-194.901c0.032-0.085,0.069-0.169,0.11-0.251c0.885-1.771,0.63-3.955-0.697-6.005
				c-1.488-1.823-3.059-2.604-5.229-2.604H105.597l5.99,31.989h223.276c6.747,0,12.236,5.495,12.236,12.249
				s-5.489,12.249-12.236,12.249H116.427L143.981,320.75z"/>
			<path fill="#FFFFFF" d="M504.555,111.813c-5.171-7.532-13.632-12.239-23.033-12.239H97.952l-5.64-28.244
				c-4.231-22.124-23.503-37.658-46.066-37.658H12.401C7.231,33.672,3,37.909,3,43.087s4.231,9.415,9.401,9.415h33.844
				c13.632,0,24.913,9.415,27.264,22.595l7.051,35.775c0,0.941,0.47,1.883,0.94,2.824l40.425,211.827
				c4.701,22.124,23.973,38.129,46.536,38.129H388.45c19.743,0,37.135-12.239,44.186-30.597l74.74-194.881
				C511.136,129.23,509.726,119.345,504.555,111.813z M489.983,131.113l-74.74,194.881c-4.231,11.297-14.572,18.358-26.323,18.358
				H168.931c-13.162,0-24.913-9.885-27.734-23.066L112.994,174.89h221.869c5.171,0,9.401-4.237,9.401-9.415
				s-4.231-9.415-9.401-9.415H109.234l-7.051-37.658h379.339c3.29,0,5.641,1.412,7.521,3.766
				C490.923,124.993,491.393,128.288,489.983,131.113z"/>
			<path fill="#FFFFFF" d="M377.168,177.725c-6.746,0-12.235-5.495-12.235-12.249s5.489-12.249,12.235-12.249h14.103
				c6.747,0,12.236,5.495,12.236,12.249s-5.489,12.249-12.236,12.249H377.168z"/>
			<path fill="#FFFFFF" d="M391.27,156.061h-14.102c-5.171,0-9.401,4.237-9.401,9.415s4.231,9.415,9.401,9.415h14.102
				c5.171,0,9.401-4.237,9.401-9.415S396.441,156.061,391.27,156.061z"/>
		</g>
	</g>
</g>
<path fill="#FFFFFF" d="M213.321,437.171c-0.678-3.653-1.719-7.182-2.867-10.687c-0.224-4.849-1.164-9.555-2.133-14.313
	c-0.293-1.44-0.972-2.396-1.836-2.966c-1.39-1.91-3.998-2.043-6.056-0.946c-0.326-1.372-0.687-2.737-1.107-4.089
	c-1.422-4.568-6.477-4.438-8.744-1.405c-1.604-1.185-3.302-1.879-5.532-1.268c-1.022,0.28-1.662,0.746-2.131,1.315
	c-0.269,0.052-0.527,0.133-0.791,0.196c-0.914-1.446-2.791-2.256-4.673-2.179c-0.043-0.22-0.085-0.44-0.129-0.659
	c-1.192-5.99-9.227-3.833-9.821,1.329c-0.258,2.242-0.607,4.626-0.946,7.084c-1.158,0.792-1.992,2.094-2.054,3.916
	c-0.018,0.516-0.052,1.028-0.095,1.537c-2.938-1.13-6.905,0.344-6.905,4.463v11c0,1.151,0.323,2.093,0.846,2.833
	c0.464,4.555,1.012,9.096,2.332,13.496c0.952,3.174,4.195,4.117,6.699,3.192c0.628,1.712,1.054,3.512,1.123,5.479
	c0.193,5.527,8.425,6.954,9.821,1.329c0.167-0.671,0.327-1.341,0.484-2.011c0.444,1.075,0.891,2.148,1.377,3.206
	c1.698,3.691,5.983,2.932,8.101,0.397c1.769,3.32,6.635,4.973,8.534,0.603c0.83-1.911,1.694-3.794,2.64-5.649
	c1.812,0.024,3.619-1.015,4.651-3.11c2.297-0.865,3.966-3.519,3.239-5.983C210.56,444.002,214.082,441.265,213.321,437.171z
	 M188.964,439.151c-0.484-0.29-0.976-0.476-1.466-0.583c0-0.063,0-0.126,0-0.189c0.282,0.031,0.569,0.041,0.857,0.029
	c0.233,0.2,0.491,0.376,0.773,0.527C189.072,439.008,189.018,439.08,188.964,439.151z"/>
<path fill="#FFFFFF" d="M495.817,125.976c-1.716-2.749-4.219-4.723-7.101-6.185c0.046-3.265-4.152-6.226-7.74-4.608
	c-0.96,0.433-1.926,0.854-2.89,1.276c-1.383-0.974-3.153-1.313-4.672-0.652c-0.945-0.117-1.873-0.225-2.763-0.322
	c-2.966-0.326-6.233-0.567-9.565-0.572c-1.04-1.36-2.754-2.072-4.915-1.234c-0.474,0.184-0.95,0.362-1.425,0.54
	c-1.165-2.057-3.783-3.327-6.769-2.036c-4.965,2.148-9.968,4.202-14.992,6.2c-2.53,0.407-5.045,0.889-7.549,1.423
	c-0.568-0.22-1.213-0.333-1.936-0.306c-1.311,0.049-2.62,0.113-3.93,0.176c-0.816-1.375-2.203-2.335-4.07-2.176
	c-6.053,0.517-12.167,1.195-18.313,1.862c-5.42,0.377-10.846,0.647-16.27,0.913c-0.655-1.57-2.109-2.777-4.417-2.774
	c-5.514,0.008-11.477,0.105-17.469,0.638c-7.315,0.162-14.622,0.373-21.906,1.284c0.975-3.066-0.825-7.354-4.625-6.922
	c-14.871,1.688-29.927,2.134-44.596,5.089c-0.557-0.899-1.175-1.776-1.868-2.624c-1.451-1.776-4.209-1.746-6.059-0.782
	c-2.796,1.457-5.481,3.165-8.22,4.761c-0.398-0.149-0.821-0.241-1.257-0.283v-5.16c0-4.633-7.167-7.238-9.29-2.572
	c-2.914-0.923-6.71,0.598-6.71,4.572v3.018c-1.686-1.128-4.096-1.229-5.867-0.043c-0.515-0.045-1.029-0.007-1.526,0.122
	c-0.608-0.119-1.224-0.148-1.815-0.055c-1.205-3.844-7.001-6.203-9.11-1.566c-0.422,0.928-0.846,1.856-1.269,2.784
	c-1.222-0.434-2.557-0.442-3.683,0.152c-1.135-3.409-5.694-4.562-8.267-1.948c-0.831,0.844-1.632,1.715-2.438,2.58
	c-0.932-1.247-2.447-2.044-4.026-2.044h-0.179c-1.102-3.911-7.095-6.023-9.138-1.524c-0.244,0.536-0.501,1.065-0.752,1.598
	c-1.516-0.458-3.177-0.163-4.466,1.39c-0.004,0.005-0.008,0.01-0.012,0.015c-1.569-2.402-5.545-3.235-7.891-1.083
	c-0.066-0.024-0.132-0.047-0.198-0.068c2.342-4.644-3.922-10.269-7.899-5.864c-0.357,0.395-0.704,0.798-1.056,1.197
	c-2.145-2.171-5.879-2.54-7.726,0.815c-0.587,1.067-1.197,2.12-1.815,3.168c-2.315-2.083-7.037-1.925-8.635,1.905
	c-0.943-0.459-2.02-0.647-3.049-0.493c1.46-2.614,0.968-6.11-2.855-6.878c-9.58-1.924-19.408-1.254-29-3
	c-3.721-0.677-6.854,2.097-6.193,5.885c-3.227-2.671-8.595,0.356-8.137,4.455c-0.193,0.073-0.381,0.157-0.563,0.252
	c-0.25-2.913-0.408-5.836-0.437-8.771c-0.063-6.445-10.063-6.451-10,0c0.025,2.529,0.138,5.054,0.32,7.573
	c-0.533,0.554-0.941,1.251-1.141,2.098c-0.293,1.24-0.546,2.486-0.75,3.733c-0.307,0.732-0.426,1.542-0.321,2.395
	c-0.401,3.864-0.205,7.733,1.071,11.53c0.558,1.661,1.643,2.682,2.893,3.168c1.466,11.244,4.169,22.189,7.446,32.986
	c-1.205,1.064-1.876,2.733-1.339,4.846c1.009,3.969,2.107,7.913,3.23,11.849c1.58,7.319,2.649,14.765,4.288,22.075
	c-0.497,0.739-0.773,1.656-0.697,2.747c1.175,16.865,5.186,33.227,10.179,49.329c0.346,1.117,1.046,1.944,1.907,2.52
	c0.096,0.531,0.194,1.061,0.289,1.591c-0.21,0.49-0.343,1.013-0.374,1.559c-0.856,15.008,2.82,29.82,6.179,44.329
	c0.237,1.023,0.69,1.805,1.272,2.377c1.454,5.57,3.071,11.099,4.728,16.623c0.206,0.687,0.521,1.267,0.911,1.749
	c0.651,2.743,1.461,5.453,2.089,8.251c1.319,5.88,9.303,3.946,9.821-1.329c0.001-0.007,0.001-0.014,0.001-0.02
	c1.804,0.222,3.769-0.649,4.944-2.163c0.871,1.345,2.286,2.288,4.055,2.184c3.741-0.221,7.492-0.495,11.248-0.799
	c1.855,1.197,4.364,0.877,6.022-0.51c0.27-0.024,0.54-0.049,0.81-0.073c0.482,0.983,1.012,1.953,1.603,2.906
	c2.431,3.916,9.843,2.701,9.317-2.524c-0.002-0.019-0.004-0.038-0.006-0.057c1.809,2.26,4.867,2.684,7.179,0.891
	c3.378,1.729,7.018,2.911,10.827,3.166c1.971,0.132,3.851-1.279,4.628-3.082c1.187,0.077,2.374,0.144,3.562,0.195
	c1.278,4.47,8.825,5.596,9.631,0.216c0.016-0.107,0.028-0.213,0.043-0.32c0.045-0.004,0.09-0.005,0.135-0.009
	c0.429-0.035,0.827-0.117,1.199-0.232c0.767,0.638,1.713,1.091,2.801,1.232c26.709,3.441,53.968,4.375,80.859,5.021
	c10.446,0.251,20.906,0.342,31.359,0.151c1.036,0.755,2.431,1.086,4.111,0.65c0.989-0.257,1.97-0.553,2.951-0.845
	c1.273-0.04,2.548-0.06,3.821-0.109c-3.126,3.783,1.286,10.078,6.422,7.449c2.998-1.534,5.845-3.222,8.576-5.03
	c2.346-1.303,4.719-2.563,7.121-3.764c9.444-0.837,18.973-2.25,27.718-5.489c5.468-2.025,10.73-4.997,12.883-10.705
	c1.476-3.913-2.789-6.742-6.151-6.151c-0.936,0.165-1.866,0.362-2.798,0.55c0.058-0.652,0.11-1.305,0.152-1.957
	c0.415-0.396,0.825-0.797,1.229-1.203c1.489-0.447,2.855-1.521,3.568-3.24c0.186-0.448,0.367-0.9,0.545-1.353
	c2.491-3.11,4.586-6.47,6.108-10.092c1.856-0.07,3.642-1.154,4.347-3.555c1.416-4.825,2.603-9.7,3.629-14.606
	c1.231-4.375,2.546-8.728,3.848-13.084c1.583-0.49,2.989-1.634,3.523-3.31c4.132-12.968,9.007-26.058,11.593-39.479
	c1.5-5.936,2.648-11.965,3.148-18.021c2.335,0.444,4.785-0.537,5.259-3.5c0.814-5.085,1.82-10.132,2.829-15.176
	c0.471-0.489,0.872-1.094,1.171-1.824c1.035-2.532,1.98-5.091,2.877-7.664c2.576,2.094,7.271,1.641,8.123-2.336
	c1.152-5.375,1.928-10.73,1.929-16.074c0.713-4.425,1.358-8.853,1.346-13.341c1.654-0.196,3.153-1.297,3.725-3.585
	c1.155-4.626,2.237-9.247,3.163-13.899c0.806-2.575,1.347-5.228,1.673-7.94c0.008,0.012,0.018,0.022,0.026,0.034
	C490.587,136.48,499.242,131.464,495.817,125.976z M144.674,155.156c-0.739,1.292-1.42,2.621-1.995,4.014
	c-0.245,0.594-0.347,1.159-0.341,1.69c-0.882-0.283-1.852-0.35-2.781-0.198c1.1-1.666,2.174-3.348,3.186-5.064
	C143.4,155.607,144.057,155.481,144.674,155.156z M135.239,166.827c-0.105,0.636-0.21,1.274-0.314,1.913
	c-0.36-0.046-0.723-0.061-1.081-0.037C134.317,168.083,134.776,167.453,135.239,166.827z M157.679,162.171
	c-0.708,4.761-1.625,9.477-2.645,14.171c-0.748-1.586-2.298-2.465-3.937-2.641c0.145-2.733,0.282-5.467,0.404-8.201
	c0.023-0.507-0.024-0.969-0.118-1.395c1.696-0.88,3.363-1.806,5.015-2.756c0.404,0.275,0.846,0.493,1.32,0.646
	C157.706,162.055,157.688,162.109,157.679,162.171z M221.99,165.797c-0.295,0.332-0.572,0.708-0.807,1.179
	c-0.841,1.683-1.675,3.37-2.503,5.059c-2.619-1.075-6.259,0.044-7.031,2.9c-0.11-0.588-0.213-1.177-0.327-1.765
	c-1.12-5.741-9.624-4.102-9.821,1.329c-0.034,0.934-0.048,1.868-0.069,2.802c-0.048,0.517-0.091,1.033-0.134,1.55
	c-0.793-3.604-1.766-7.171-2.975-10.682c-1.601-4.649-8.185-4.588-9.555-0.354c-2.335-0.62-4.954,0.553-5.917,3.232
	c-0.011-0.024-0.021-0.048-0.032-0.072c-1.278-2.78-5.256-3.077-7.537-1.382c-1.858-0.104-3.854,0.801-4.951,2.454
	c-0.316,0.145-0.616,0.321-0.896,0.526c-0.759-0.551-1.659-0.848-2.58-0.908c0.222-2.722,0.442-5.444,0.646-8.167
	c0.166-2.214-1.215-3.75-2.991-4.459c0.532-0.755,1.062-1.511,1.589-2.27c0.481,0.298,0.996,0.531,1.527,0.675
	c1.598,2.03,4.761,2.735,7.411,0.59c0.304-0.246,0.606-0.499,0.909-0.747c1.385,3.26,6.27,4.639,8.873,0.736
	c1.02-1.53,2.043-3.057,3.07-4.582c1.394,1.095,3.216,1.534,4.737,0.884c-1.264,3.376,1.957,6.027,5.054,6.088
	c1.615,2.033,4.671,2.899,6.83,1.192c-0.007,4.855,5.69,6.033,8.55,3.217c1.69,3.101,6.797,3.779,8.76,0.201
	c0.104-0.191,0.214-0.378,0.319-0.568C222.088,164.903,222.033,165.35,221.99,165.797z M237.091,169.213
	c-0.997-4.02-1.967-8.042-3.138-11.96c0.183-0.016,0.366-0.043,0.549-0.079c0.658,0.593,1.441,1.028,2.262,1.248
	c0.211,0.943,0.687,1.78,1.329,2.445C237.57,163.636,237.275,166.421,237.091,169.213z M253.5,328.212
	c-0.123-0.003-0.245-0.008-0.368-0.011c0.082-0.569,0.133-1.138,0.201-1.707c0.055,0.1,0.111,0.2,0.167,0.3V328.212z
	 M276.369,155.856c-0.54,0.927-0.97,1.882-1.268,2.861c-1.522,0.908-3.014,1.878-4.459,2.929c-2.399-0.325-5.193,0.986-5.963,3.524
	c-0.197,0.649-0.399,1.328-0.604,2.019c-0.499,0.487-0.972,1-1.455,1.504c-0.092-0.508-0.19-1.015-0.298-1.523
	c-0.069-0.324-0.166-0.619-0.279-0.896c0.029-0.06,0.059-0.12,0.088-0.181c0.987-0.327,1.928-0.989,2.686-2.071
	c2.267-3.234,4.542-6.479,6.71-9.784c0.769,0.184,1.561,0.227,2.301,0.082c0.91-0.178,1.795-0.397,2.657-0.655
	C276.416,154.393,276.373,155.122,276.369,155.856z M296.976,158.183c-1.257,0.599-2.493,1.244-3.721,1.907
	c0.71-1.544,1.371-3.103,1.984-4.676c0.82,0.858,1.665,1.685,2.563,2.446C297.528,157.948,297.253,158.051,296.976,158.183z
	 M311.03,168.583c-1.222,0.047-2.442,0.056-3.659,0.043c0.797-1.305,1.625-2.587,2.49-3.841c0.702,0.267,1.412,0.52,2.13,0.759
	C311.596,166.539,311.274,167.553,311.03,168.583z M327.292,223.822c-0.316,0.267-0.624,0.547-0.948,0.801
	c0.301-0.548,0.614-1.091,0.929-1.634c0.052-0.032,0.103-0.065,0.155-0.097C327.384,223.202,327.339,223.511,327.292,223.822z
	 M346.191,157.968c-0.07-0.064-0.146-0.125-0.217-0.188c0.537-0.445,1.076-0.888,1.616-1.328c0.063-0.037,0.126-0.075,0.189-0.112
	C347.238,156.879,346.708,157.422,346.191,157.968z M368.66,318.874c-0.236,0.147-0.471,0.294-0.706,0.442
	c0.287-0.639,0.574-1.278,0.858-1.919C368.76,317.89,368.71,318.383,368.66,318.874z M400.931,291.943
	c-0.441,0.569-0.881,1.138-1.319,1.711c0.681-1.474,1.377-2.942,2.08-4.407C401.437,290.145,401.184,291.044,400.931,291.943z"/>
</svg>
