<?xml version="1.0" encoding="utf-8"?>
<!-- Generator: Adobe Illustrator 17.0.0, SVG Export Plug-In . SVG Version: 6.00 Build 0)  -->
<!DOCTYPE svg PUBLIC "-//W3C//DTD SVG 1.1//EN" "http://www.w3.org/Graphics/SVG/1.1/DTD/svg11.dtd">
<svg version="1.1" id="Layer_1" xmlns="http://www.w3.org/2000/svg" xmlns:xlink="http://www.w3.org/1999/xlink" x="0px" y="0px"
	 width="512px" height="512px" viewBox="0 0 512 512" enable-background="new 0 0 512 512" xml:space="preserve">
<g>
	<g>
		<g>
			<path fill="#5757CE" d="M372.938,478.99c-27.482,0-49.841-22.389-49.841-49.907c0-27.52,22.358-49.908,49.841-49.908
				s49.842,22.389,49.842,49.908C422.779,456.602,400.42,478.99,372.938,478.99z M372.938,403.674
				c-13.988,0-25.368,11.398-25.368,25.409s11.38,25.408,25.368,25.408c13.989,0,25.369-11.397,25.369-25.408
				S386.927,403.674,372.938,403.674z"/>
			<path fill="#5757CE" d="M372.938,382.01c-25.853,0-47.006,21.183-47.006,47.073s21.153,47.073,47.006,47.073
				c25.853,0,47.006-21.183,47.006-47.073S398.791,382.01,372.938,382.01z M372.938,457.326c-15.512,0-28.204-12.71-28.204-28.244
				s12.692-28.244,28.204-28.244s28.204,12.71,28.204,28.244C401.142,444.617,388.45,457.326,372.938,457.326z"/>
			<path fill="#5757CE" d="M184.914,478.99c-27.482,0-49.84-22.389-49.84-49.907c0-27.52,22.358-49.908,49.84-49.908
				s49.84,22.389,49.84,49.908C234.754,456.602,212.396,478.99,184.914,478.99z M184.914,403.674
				c-13.988,0-25.369,11.398-25.369,25.409s11.381,25.408,25.369,25.408s25.369-11.397,25.369-25.408
				S198.902,403.674,184.914,403.674z"/>
			<path fill="#5757CE" d="M184.914,382.01c-25.853,0-47.006,21.183-47.006,47.073s21.153,47.073,47.006,47.073
				s47.006-21.183,47.006-47.073S210.767,382.01,184.914,382.01z M184.914,457.326c-15.512,0-28.204-12.71-28.204-28.244
				s12.692-28.244,28.204-28.244s28.204,12.71,28.204,28.244C213.117,444.617,200.426,457.326,184.914,457.326z"/>
			<path fill="#5757CE" d="M168.461,366.486c-23.601,0-44.338-16.98-49.309-40.375L78.789,114.608
				c-0.474-0.963-0.98-2.107-1.054-3.414l-7.006-35.55c-2.137-11.978-12.2-20.309-24.482-20.309H12.401
				c-6.747,0-12.236-5.495-12.236-12.249s5.489-12.249,12.236-12.249h33.844c23.878,0,44.422,16.806,48.85,39.96l5.181,25.941
				h381.245c10.096,0,19.58,5.035,25.37,13.469c5.948,8.664,7.105,19.529,3.097,29.064l-74.706,194.797
				c-7.563,19.693-25.945,32.417-46.832,32.417H168.461V366.486z M143.981,320.75c2.528,11.814,13.26,20.767,24.95,20.767H388.92
				c10.621,0,19.911-6.483,23.669-16.518l74.748-194.901c0.032-0.085,0.069-0.169,0.11-0.251c0.885-1.771,0.63-3.955-0.697-6.005
				c-1.488-1.823-3.059-2.604-5.229-2.604H105.597l5.99,31.989h223.276c6.747,0,12.236,5.495,12.236,12.249
				s-5.489,12.249-12.236,12.249H116.427L143.981,320.75z"/>
			<path fill="#5757CE" d="M504.555,111.813c-5.171-7.532-13.632-12.239-23.033-12.239H97.952l-5.64-28.244
				c-4.231-22.124-23.503-37.658-46.066-37.658H12.401C7.231,33.672,3,37.909,3,43.087s4.231,9.415,9.401,9.415h33.844
				c13.632,0,24.913,9.415,27.264,22.595l7.051,35.775c0,0.941,0.47,1.883,0.94,2.824l40.425,211.827
				c4.701,22.124,23.973,38.129,46.536,38.129H388.45c19.743,0,37.135-12.239,44.186-30.597l74.74-194.881
				C511.136,129.23,509.726,119.345,504.555,111.813z M489.983,131.113l-74.74,194.881c-4.231,11.297-14.572,18.358-26.323,18.358
				H168.931c-13.162,0-24.913-9.885-27.734-23.066L112.994,174.89h221.869c5.171,0,9.401-4.237,9.401-9.415
				s-4.231-9.415-9.401-9.415H109.234l-7.051-37.658h379.339c3.29,0,5.641,1.412,7.521,3.766
				C490.923,124.993,491.393,128.288,489.983,131.113z"/>
			<path fill="#5757CE" d="M377.168,177.725c-6.746,0-12.235-5.495-12.235-12.249s5.489-12.249,12.235-12.249h14.103
				c6.747,0,12.236,5.495,12.236,12.249s-5.489,12.249-12.236,12.249H377.168z"/>
			<path fill="#5757CE" d="M391.27,156.061h-14.102c-5.171,0-9.401,4.237-9.401,9.415s4.231,9.415,9.401,9.415h14.102
				c5.171,0,9.401-4.237,9.401-9.415S396.441,156.061,391.27,156.061z"/>
		</g>
	</g>
</g>
</svg>
